<svg width="5" height="6" viewBox="0 0 5 6" fill="none" xmlns="http://www.w3.org/2000/svg">
<path d="M4.72879 0.0554179C4.56226 -0.0302843 4.36179 -0.015727 4.20938 0.0931353L1.5 2.02841V0.500002C1.5 0.223859 1.27614 1.80153e-06 1 1.80153e-06C0.723858 1.80153e-06 0.5 0.223859 0.5 0.500002V5.5C0.5 5.77614 0.723858 6 1 6C1.27614 6 1.5 5.77614 1.5 5.5V3.9716L4.20938 5.90687C4.36179 6.01573 4.56226 6.03029 4.72879 5.94459C4.89533 5.85888 5 5.6873 5 5.5V0.500002C5 0.312708 4.89533 0.14112 4.72879 0.0554179Z" fill="#1ed761"/>
</svg>
